<?xml version="1.0" encoding="UTF-8" standalone="no"?><!DOCTYPE svg PUBLIC "-//W3C//DTD SVG 1.1//EN" "http://www.w3.org/Graphics/SVG/1.1/DTD/svg11.dtd"><svg width="100%" height="100%" viewBox="0 0 7242 7242" version="1.1" xmlns="http://www.w3.org/2000/svg" xmlns:xlink="http://www.w3.org/1999/xlink" xml:space="preserve" xmlns:serif="http://www.serif.com/" style="fill-rule:evenodd;clip-rule:evenodd;stroke-linejoin:round;stroke-miterlimit:2;"><ellipse cx="4979.01" cy="1693.8" rx="1631.39" ry="1601.71" style="fill:#ff9d00;"/><path d="M2759.19,1614.97c161.821,-85.713 345.129,-134.042 539.296,-134.042c465.683,0 868.933,278.129 1062.27,682.159c470.45,112.854 825.163,606.725 825.163,1198.14c-0,674.658 -461.608,1222.39 -1030.17,1222.39c-157.054,-0 -305.933,-41.775 -439.246,-116.517c-136.416,79.175 -289.725,123.629 -451.712,123.629c-164.313,0 -319.688,-45.737 -457.542,-127.058c-155.487,111.783 -337.821,176.158 -532.725,176.158c-147.712,0 -288.208,-36.975 -415.321,-103.558c-138.204,81.833 -294.079,127.891 -458.983,127.891c-568.558,0 -1030.16,-547.729 -1030.16,-1222.39c-0,-560.558 318.691,-1033.53 752.604,-1177.42c171.937,-456.233 601.621,-779.883 1103.98,-779.883c191.487,-0 372.396,47.021 532.554,130.504Z" style="fill:#b7b7b4;"/><path d="M4463.55,2062.06c161.838,-85.712 345.129,-134.062 539.296,-134.062c465.688,-0 868.933,278.15 1062.27,682.179c470.471,112.85 825.179,606.725 825.179,1198.14c-0,674.654 -461.604,1222.39 -1030.18,1222.39c-157.038,0 -305.917,-41.775 -439.234,-116.542c-136.433,79.2 -289.72,123.655 -451.708,123.655c-164.329,-0 -319.708,-45.738 -457.562,-127.059c-155.471,111.784 -337.821,176.159 -532.721,176.159c-147.717,-0 -288.213,-36.975 -415.325,-103.58c-138.188,81.855 -294.079,127.913 -458.963,127.913c-568.579,-0 -1030.18,-547.729 -1030.18,-1222.39c-0,-560.583 318.692,-1033.53 752.625,-1177.42c171.917,-456.234 601.621,-779.884 1103.97,-779.884c191.471,0 372.4,47.021 532.537,130.504Z" style="fill:#cfcfcf;"/><path d="M1760.22,5536.09c33.894,46.05 53.708,101.659 53.708,161.521c0,158.532 -138.966,287.239 -310.132,287.239c-171.167,0 -310.133,-128.707 -310.133,-287.239c0,-31.152 5.366,-61.152 15.281,-89.228l-0.478,-0l1.548,-2.976c8.136,-22.219 19.131,-43.22 32.586,-62.64l260.547,-500.837l257.073,494.16Z" style="fill:#528fcb;"/><path d="M1760.22,5536.09c33.894,46.05 53.708,101.659 53.708,161.521c0,158.532 -138.966,287.239 -310.132,287.239c-171.167,0 -310.133,-128.707 -310.133,-287.239c0,-31.152 5.366,-61.152 15.281,-89.228l-0.478,-0l1.548,-2.976c8.136,-22.219 19.131,-43.22 32.586,-62.64l260.547,-500.837l257.073,494.16Z" style="fill:#528fcb;"/><path d="M2603.99,6089.44c33.894,46.05 53.708,101.659 53.708,161.521c-0,158.532 -138.966,287.24 -310.133,287.24c-171.166,-0 -310.132,-128.708 -310.132,-287.24c0,-31.151 5.366,-61.151 15.281,-89.228l-0.479,-0l1.548,-2.976c8.137,-22.219 19.132,-43.22 32.587,-62.639l260.547,-500.838l257.073,494.16Z" style="fill:#528fcb;"/><path d="M3817.36,5811.03c33.894,46.051 53.708,101.66 53.708,161.522c-0,158.532 -138.966,287.239 -310.133,287.239c-171.166,0 -310.132,-128.707 -310.132,-287.239c0,-31.152 5.366,-61.152 15.281,-89.228l-0.479,-0l1.548,-2.976c8.137,-22.219 19.132,-43.22 32.587,-62.64l260.547,-500.837l257.073,494.159Z" style="fill:#528fcb;"/><path d="M3817.36,5811.03c33.894,46.051 53.708,101.66 53.708,161.522c-0,158.532 -138.966,287.239 -310.133,287.239c-171.166,0 -310.132,-128.707 -310.132,-287.239c0,-31.152 5.366,-61.152 15.281,-89.228l-0.479,-0l1.548,-2.976c8.137,-22.219 19.132,-43.22 32.587,-62.64l260.547,-500.837l257.073,494.159Z" style="fill:#528fcb;"/><path d="M4718.4,6395.81c33.894,46.05 53.708,101.66 53.708,161.521c-0,158.532 -138.966,287.24 -310.132,287.24c-171.167,-0 -310.133,-128.708 -310.133,-287.24c0,-31.151 5.366,-61.151 15.281,-89.228l-0.479,0l1.548,-2.976c8.137,-22.218 19.132,-43.22 32.587,-62.639l260.547,-500.838l257.073,494.16Z" style="fill:#528fcb;"/><path d="M5681.7,5625.07c33.894,46.051 53.708,101.66 53.708,161.521c0,158.532 -138.965,287.24 -310.132,287.24c-171.167,-0 -310.132,-128.708 -310.132,-287.24c-0,-31.151 5.365,-61.151 15.281,-89.228l-0.479,0l1.548,-2.975c8.136,-22.219 19.131,-43.221 32.586,-62.64l260.547,-500.838l257.073,494.16Z" style="fill:#528fcb;"/></svg>