<?xml version="1.0" encoding="UTF-8" standalone="no"?><!DOCTYPE svg PUBLIC "-//W3C//DTD SVG 1.1//EN" "http://www.w3.org/Graphics/SVG/1.1/DTD/svg11.dtd"><svg width="100%" height="100%" viewBox="0 0 1738 1738" version="1.1" xmlns="http://www.w3.org/2000/svg" xmlns:xlink="http://www.w3.org/1999/xlink" xml:space="preserve" xmlns:serif="http://www.serif.com/" style="fill-rule:evenodd;clip-rule:evenodd;stroke-linejoin:round;stroke-miterlimit:2;"><path d="M1406.13,580.704l3.516,6.082l3.906,6.602l1.578,2.882l1.641,2.838l3.177,5.964l3.454,6.308l1.654,3.278l1.725,3.238l-0.091,-0c42.562,83.153 66.477,177.016 66.477,276.32c-0,11.521 -0.322,22.968 -1.072,34.321l0.115,-0l-0.49,6.324l-0.454,7.676l-0.14,-0c-4.442,56.954 -16.785,111.748 -36.029,163.319l-0.684,1.91l0.747,-1.91l0.054,0l-1.272,3.225l-0.531,1.484l-2.204,5.455l-2.094,5.312l1.53,-3.916l-6.315,15.628l-8.872,19.663l0.397,-0.813l-0.419,0.862l-1.051,2.327l-3.176,6.354c0,0 -4.467,9.177 -4.467,9.177l-0.463,0.864l3.993,-8.166l-6.673,13.348l-3.515,6.389c0,0 -4.427,8.271 -4.427,8.271l-0.871,1.486l3.951,-7.308l-6.744,12.258l-3.775,6.268l-4.412,7.533l-1.324,2.075l3.836,-6.455l-6.731,11.174l-3.97,6.044l1.383,-2.168l-5.79,9.077l-1.823,2.631l3.613,-5.557l-6.599,10.047l-4.11,5.758l-4.405,6.36l-2.363,3.151l3.178,-4.482l-6.244,8.745l-4.208,5.438l-4.395,5.861l-2.943,3.631l2.127,-2.759l-5.262,6.8l-4.274,5.103l-4.369,5.393l-3.456,3.952l-3.3,3.941l-0.146,0c-115.389,132.643 -286.935,216.712 -478.323,216.712c-191.388,0 -362.934,-84.069 -478.323,-216.712l-0.146,0l-3.31,-3.952l-3.446,-3.941l-4.328,-5.342l-4.316,-5.153l-5.256,-6.791l2.078,2.696l-2.899,-3.578l-4.305,-5.741l-4.301,-5.556l-6.227,-8.723l3.103,4.377l-2.302,-3.07l-4.274,-6.172l-4.245,-5.944l-6.572,-10.006l3.522,5.417l-1.755,-2.534l-4.243,-6.652l-4.138,-6.299l-6.694,-11.111l3.735,6.285l-1.257,-1.97l-4.22,-7.208l-3.971,-6.591l-6.696,-12.171l3.845,7.113l-0.808,-1.38l-4.215,-7.874l-3.733,-6.785l-6.616,-13.235l3.887,7.95l-0.408,-0.762l-4.237,-8.705l-3.413,-6.826l-6.467,-14.332l3.874,8.823c-1.697,-3.66 -3.359,-7.339 -4.984,-11.039c-1.625,-3.7 -3.213,-7.42 -4.764,-11.159l1.319,3.002l-5.175,-12.807l1.004,2.569l-1.373,-3.483l-2.462,-6.093l-0.593,-1.656l-1.203,-3.052l0.05,0l0.722,1.848l-0.662,-1.848c-19.244,-51.573 -31.585,-106.368 -36.023,-163.319l-0.139,-0l-0.454,-7.672l-0.49,-6.328l0.115,-0c-0.75,-11.353 -1.072,-22.8 -1.072,-34.321c-0,-99.304 23.915,-193.167 66.477,-276.32l-0.092,-0l1.726,-3.238l1.654,-3.278l3.453,-6.308l3.178,-5.964l1.641,-2.838l1.578,-2.882l3.906,-6.602l3.516,-6.082l1.52,-2.43l1.489,-2.518l0.085,0c110.127,-179.347 310.467,-299.353 539.13,-299.353c228.663,0 429.003,120.006 539.13,299.353l0.085,0l1.489,2.518l1.52,2.43Z" style="fill:#ff9a00;"/></svg>