<?xml version="1.0" encoding="UTF-8" standalone="no"?><!DOCTYPE svg PUBLIC "-//W3C//DTD SVG 1.1//EN" "http://www.w3.org/Graphics/SVG/1.1/DTD/svg11.dtd"><svg width="100%" height="100%" viewBox="0 0 30175 30175" version="1.1" xmlns="http://www.w3.org/2000/svg" xmlns:xlink="http://www.w3.org/1999/xlink" xml:space="preserve" xmlns:serif="http://www.serif.com/" style="fill-rule:evenodd;clip-rule:evenodd;stroke-linejoin:round;stroke-miterlimit:2;"><ellipse cx="20625.3" cy="11767.3" rx="6797.46" ry="6673.79" style="fill:#ff9d00;"/><path d="M11376,11438.8c674.254,-357.138 1438.04,-558.509 2247.07,-558.509c1940.35,0 3620.55,1158.87 4426.12,2842.33c1960.21,470.225 3438.18,2528.02 3438.18,4992.25c0,2811.08 -1923.37,5093.29 -4292.38,5093.29c-654.392,0 -1274.72,-174.062 -1830.19,-485.487c-568.4,329.895 -1207.19,515.12 -1882.13,515.12c-684.637,0 -1332.03,-190.57 -1906.42,-529.408c-647.862,465.763 -1407.59,733.992 -2219.69,733.992c-615.467,-0 -1200.87,-154.063 -1730.51,-431.492c-575.85,340.971 -1225.33,532.879 -1912.43,532.879c-2368.99,0 -4292.33,-2282.2 -4292.33,-5093.29c-0,-2335.66 1327.88,-4306.38 3135.85,-4905.92c716.404,-1900.97 2506.75,-3249.51 4599.92,-3249.51c797.862,0 1551.65,195.921 2218.97,543.767l-0.034,-0.012Z" style="fill:#b7b7b4;"/><path d="M18477.5,13301.7c674.325,-357.134 1438.04,-558.592 2247.07,-558.592c1940.37,-0 3620.55,1158.96 4426.12,2842.41c1960.3,470.209 3438.25,2528.02 3438.25,4992.25c-0,2811.06 -1923.35,5093.29 -4292.42,5093.29c-654.325,0 -1274.65,-174.062 -1830.14,-485.592c-568.47,330 -1207.17,515.23 -1882.12,515.23c-684.704,-0 -1332.12,-190.575 -1906.51,-529.413c-647.795,465.767 -1407.59,733.996 -2219.67,733.996c-615.488,-0 -1200.89,-154.063 -1730.52,-431.583c-575.784,341.062 -1225.33,532.97 -1912.35,532.97c-2369.08,0 -4292.42,-2282.2 -4292.42,-5093.29c0,-2335.76 1327.88,-4306.38 3135.94,-4905.92c716.321,-1900.98 2506.75,-3249.52 4599.88,-3249.52c797.796,0 1551.67,195.921 2218.9,543.767l-0.017,-0.012Z" style="fill:#cfcfcf;"/></svg>