<?xml version="1.0" encoding="UTF-8" standalone="no"?><!DOCTYPE svg PUBLIC "-//W3C//DTD SVG 1.1//EN" "http://www.w3.org/Graphics/SVG/1.1/DTD/svg11.dtd"><svg width="100%" height="100%" viewBox="0 0 30175 30175" version="1.1" xmlns="http://www.w3.org/2000/svg" xmlns:xlink="http://www.w3.org/1999/xlink" xml:space="preserve" xmlns:serif="http://www.serif.com/" style="fill-rule:evenodd;clip-rule:evenodd;stroke-linejoin:round;stroke-miterlimit:2;"><path d="M11360.1,9279.23c674.254,-357.137 1438.04,-558.508 2247.07,-558.508c1940.35,-0 3620.55,1158.87 4426.12,2842.33c1960.21,470.225 3438.18,2528.02 3438.18,4992.25c-0,2811.08 -1923.37,5093.29 -4292.38,5093.29c-654.392,-0 -1274.72,-174.063 -1830.19,-485.488c-568.4,329.896 -1207.19,515.121 -1882.13,515.121c-684.638,-0 -1332.03,-190.571 -1906.42,-529.408c-647.863,465.762 -1407.59,733.991 -2219.69,733.991c-615.466,0 -1200.87,-154.062 -1730.5,-431.491c-575.85,340.97 -1225.33,532.879 -1912.43,532.879c-2368.99,-0 -4292.33,-2282.2 -4292.33,-5093.29c-0,-2335.66 1327.88,-4306.38 3135.85,-4905.92c716.404,-1900.97 2506.75,-3249.51 4599.92,-3249.51c797.863,-0 1551.65,195.921 2218.97,543.767l-0.033,-0.013Z" style="fill:#b7b7b4;"/><path d="M19753,9137.42c825.912,637.105 1862.45,1005.62 2979.67,979.877c2617.06,-60.294 4692.21,-2261.22 4631.14,-4911.85c-61.067,-2650.63 -2235.37,-4753.65 -4852.43,-4693.36c-35.331,0.814 -70.562,2.018 -105.699,3.632c1108.69,855.188 1837.77,2194.41 1872.76,3713.48c60.243,2614.84 -1958.44,4792.05 -4525.44,4908.21Z" style="fill:#e6b95e;"/><path d="M18461.6,11142.1c674.325,-357.133 1438.04,-558.592 2247.07,-558.592c1940.37,0 3620.55,1158.96 4426.12,2842.41c1960.3,470.208 3438.24,2528.02 3438.24,4992.25c0,2811.06 -1923.35,5093.29 -4292.42,5093.29c-654.325,-0 -1274.65,-174.063 -1830.14,-485.592c-568.471,330 -1207.17,515.229 -1882.12,515.229c-684.704,0 -1332.12,-190.575 -1906.51,-529.412c-647.796,465.766 -1407.59,733.995 -2219.67,733.995c-615.487,0 -1200.89,-154.062 -1730.52,-431.583c-575.783,341.063 -1225.33,532.971 -1912.35,532.971c-2369.08,-0 -4292.42,-2282.2 -4292.42,-5093.29c-0,-2335.76 1327.88,-4306.38 3135.94,-4905.92c716.321,-1900.98 2506.76,-3249.52 4599.88,-3249.52c797.796,-0 1551.67,195.921 2218.91,543.767l-0.017,-0.013Z" style="fill:#cfcfcf;"/><path d="M7197.69,25617.2c141.225,191.875 223.783,423.579 223.783,673.004c0,660.55 -579.025,1196.83 -1292.22,1196.83c-713.196,0 -1292.22,-536.279 -1292.22,-1196.83c-0,-129.8 22.358,-254.8 63.671,-371.783l-1.992,-0l6.45,-12.4c33.9,-92.579 79.712,-180.083 135.775,-261l1085.61,-2086.82l1071.14,2059Z" style="fill:#528fcb;"/><path d="M7197.69,25617.2c141.225,191.875 223.783,423.579 223.783,673.004c0,660.55 -579.025,1196.83 -1292.22,1196.83c-713.196,0 -1292.22,-536.279 -1292.22,-1196.83c-0,-129.8 22.358,-254.8 63.671,-371.783l-1.992,-0l6.45,-12.4c33.9,-92.579 79.712,-180.083 135.775,-261l1085.61,-2086.82l1071.14,2059Z" style="fill:#528fcb;"/><path d="M10713.4,27922.9c141.225,191.875 223.784,423.579 223.784,673.004c-0,660.55 -579.025,1196.83 -1292.22,1196.83c-713.192,-0 -1292.22,-536.284 -1292.22,-1196.83c0,-129.796 22.358,-254.796 63.671,-371.783l-1.996,-0l6.45,-12.4c33.904,-92.579 79.717,-180.083 135.779,-260.996l1085.61,-2086.82l1071.14,2059Z" style="fill:#528fcb;"/><path d="M15769.1,26762.8c141.225,191.88 223.783,423.584 223.783,673.009c-0,660.55 -579.025,1196.83 -1292.22,1196.83c-713.192,-0 -1292.22,-536.279 -1292.22,-1196.83c0,-129.8 22.359,-254.8 63.671,-371.784l-1.996,0l6.45,-12.4c33.905,-92.579 79.717,-180.083 135.78,-261l1085.61,-2086.82l1071.14,2058.99Z" style="fill:#528fcb;"/><path d="M15769.1,26762.8c141.225,191.88 223.783,423.584 223.783,673.009c-0,660.55 -579.025,1196.83 -1292.22,1196.83c-713.192,-0 -1292.22,-536.279 -1292.22,-1196.83c0,-129.8 22.359,-254.8 63.671,-371.784l-1.996,0l6.45,-12.4c33.905,-92.579 79.717,-180.083 135.78,-261l1085.61,-2086.82l1071.14,2058.99Z" style="fill:#528fcb;"/><path d="M23537.2,25988c141.225,191.879 223.783,423.583 223.783,673.004c0,660.55 -579.021,1196.83 -1292.22,1196.83c-713.196,-0 -1292.22,-536.284 -1292.22,-1196.83c-0,-129.796 22.354,-254.796 63.671,-371.783l-1.996,-0l6.45,-12.396c33.9,-92.579 79.712,-180.087 135.775,-261l1085.61,-2086.82l1071.14,2059Z" style="fill:#528fcb;"/></svg>