<?xml version="1.0" encoding="UTF-8" standalone="no"?><!DOCTYPE svg PUBLIC "-//W3C//DTD SVG 1.1//EN" "http://www.w3.org/Graphics/SVG/1.1/DTD/svg11.dtd"><svg width="100%" height="100%" viewBox="0 0 1738 1738" version="1.1" xmlns="http://www.w3.org/2000/svg" xmlns:xlink="http://www.w3.org/1999/xlink" xml:space="preserve" xmlns:serif="http://www.serif.com/" style="fill-rule:evenodd;clip-rule:evenodd;stroke-linecap:round;stroke-linejoin:round;stroke-miterlimit:1.5;"><path d="M889.202,880.242l-2.665,-464.899l-163.628,-163.628l163.628,163.628l148.472,-148.471" style="fill:none;stroke:#7ca3d8;stroke-width:125px;"/><path d="M889.202,880.242l-2.665,-464.899l-163.628,-163.628l163.628,163.628l148.472,-148.471" style="fill:none;stroke:#7ca3d8;stroke-width:125px;"/><path d="M883.945,873.208l-330.617,-326.849l-231.405,0l231.405,0l0,-209.97" style="fill:none;stroke:#7ca3d8;stroke-width:125px;"/><path d="M886.747,872.11l-432.956,2.664l-152.385,163.628l152.385,-163.628l-138.27,-148.471" style="fill:none;stroke:#7ca3d8;stroke-width:125px;"/><path d="M880.673,875.86l2.664,-464.898l163.628,-163.628l-163.628,163.628l-148.471,-148.472" style="fill:none;stroke:#7ca3d8;stroke-width:125px;"/><path d="M880.673,875.86l2.664,-464.898l163.628,-163.628l-163.628,163.628l-148.471,-148.472" style="fill:none;stroke:#7ca3d8;stroke-width:125px;"/><path d="M885.929,868.827l330.617,-326.849l231.405,0l-231.405,0l0,-209.97" style="fill:none;stroke:#7ca3d8;stroke-width:125px;"/><path d="M883.127,867.728l432.956,2.665l152.386,163.628l-152.386,-163.628l138.27,-148.472" style="fill:none;stroke:#7ca3d8;stroke-width:125px;"/><path d="M882.689,859.736l-2.664,464.898l-163.628,163.628l163.628,-163.628l148.471,148.472" style="fill:none;stroke:#7ca3d8;stroke-width:125px;"/><path d="M882.689,859.736l-2.664,464.898l-163.628,163.628l163.628,-163.628l148.471,148.472" style="fill:none;stroke:#7ca3d8;stroke-width:125px;"/><path d="M877.432,866.769l-330.617,326.849l-231.405,-0l231.405,-0l0,209.97" style="fill:none;stroke:#7ca3d8;stroke-width:125px;"/><path d="M880.235,867.868l-432.956,-2.665l-152.386,-163.628l152.386,163.628l-138.271,148.472" style="fill:none;stroke:#7ca3d8;stroke-width:125px;"/><path d="M874.16,864.117l2.665,464.898l163.628,163.629l-163.628,-163.629l-148.472,148.472" style="fill:none;stroke:#7ca3d8;stroke-width:125px;"/><path d="M874.16,864.117l2.665,464.898l163.628,163.629l-163.628,-163.629l-148.472,148.472" style="fill:none;stroke:#7ca3d8;stroke-width:125px;"/><path d="M879.417,871.15l330.617,326.849l231.405,0l-231.405,0l-0,209.97" style="fill:none;stroke:#7ca3d8;stroke-width:125px;"/><path d="M876.614,872.249l432.957,-2.664l152.385,-163.629l-152.385,163.629l138.27,148.471" style="fill:none;stroke:#7ca3d8;stroke-width:125px;"/></svg>