<?xml version="1.0" encoding="UTF-8" standalone="no"?><!DOCTYPE svg PUBLIC "-//W3C//DTD SVG 1.1//EN" "http://www.w3.org/Graphics/SVG/1.1/DTD/svg11.dtd"><svg width="100%" height="100%" viewBox="0 0 7242 7242" version="1.1" xmlns="http://www.w3.org/2000/svg" xmlns:xlink="http://www.w3.org/1999/xlink" xml:space="preserve" xmlns:serif="http://www.serif.com/" style="fill-rule:evenodd;clip-rule:evenodd;stroke-linejoin:round;stroke-miterlimit:2;"><path d="M2404.95,5413.85c25.225,34.272 39.971,75.658 39.971,120.208c-0,117.983 -103.422,213.771 -230.808,213.771c-127.387,-0 -230.808,-95.788 -230.808,-213.771c-0,-23.184 3.993,-45.51 11.372,-66.406l-0.356,0l1.152,-2.214c6.056,-16.536 14.238,-32.166 24.252,-46.618l193.905,-372.735l191.32,367.765Z" style="fill:#528fcb;"/><path d="M2404.95,5413.85c25.225,34.272 39.971,75.658 39.971,120.208c-0,117.983 -103.422,213.771 -230.808,213.771c-127.387,-0 -230.808,-95.788 -230.808,-213.771c-0,-23.184 3.993,-45.51 11.372,-66.406l-0.356,0l1.152,-2.214c6.056,-16.536 14.238,-32.166 24.252,-46.618l193.905,-372.735l191.32,367.765Z" style="fill:#528fcb;"/><path d="M3032.9,5825.67c25.225,34.272 39.971,75.657 39.971,120.208c-0,117.983 -103.422,213.77 -230.808,213.77c-127.386,0 -230.808,-95.787 -230.808,-213.77c0,-23.184 3.994,-45.511 11.373,-66.406l-0.357,0l1.153,-2.214c6.055,-16.536 14.238,-32.166 24.251,-46.618l193.905,-372.736l191.32,367.766Z" style="fill:#528fcb;"/><path d="M3935.92,5618.47c25.224,34.272 39.97,75.658 39.97,120.208c0,117.983 -103.421,213.771 -230.807,213.771c-127.387,-0 -230.808,-95.788 -230.808,-213.771c-0,-23.183 3.993,-45.51 11.372,-66.405l-0.356,-0l1.152,-2.215c6.056,-16.536 14.238,-32.166 24.252,-46.618l193.905,-372.735l191.32,367.765Z" style="fill:#528fcb;"/><path d="M3935.92,5618.47c25.224,34.272 39.97,75.658 39.97,120.208c0,117.983 -103.421,213.771 -230.807,213.771c-127.387,-0 -230.808,-95.788 -230.808,-213.771c-0,-23.183 3.993,-45.51 11.372,-66.405l-0.356,-0l1.152,-2.215c6.056,-16.536 14.238,-32.166 24.252,-46.618l193.905,-372.735l191.32,367.765Z" style="fill:#528fcb;"/><path d="M4606.5,6053.67c25.224,34.272 39.97,75.658 39.97,120.208c0,117.984 -103.421,213.771 -230.807,213.771c-127.387,-0 -230.808,-95.787 -230.808,-213.771c-0,-23.183 3.993,-45.51 11.372,-66.405l-0.356,-0l1.152,-2.215c6.055,-16.536 14.238,-32.165 24.252,-46.618l193.905,-372.735l191.32,367.765Z" style="fill:#528fcb;"/><path d="M5323.41,5480.07c25.225,34.271 39.971,75.657 39.971,120.208c-0,117.983 -103.422,213.77 -230.808,213.77c-127.386,0 -230.808,-95.787 -230.808,-213.77c0,-23.184 3.994,-45.511 11.373,-66.406l-0.357,-0l1.153,-2.215c6.055,-16.535 14.238,-32.165 24.251,-46.618l193.905,-372.735l191.32,367.766Z" style="fill:#528fcb;"/><path d="M2162.19,678.627c64.059,-141.219 182.444,-244.987 335.424,-273.886c209.686,-39.621 426.072,72.434 557.576,266.745c27.401,-11.285 56.301,-19.943 86.54,-25.656c236.929,-44.769 482.409,104.103 604.303,346.462c260.309,-7.018 514.729,206.724 588.838,508.999c63.636,259.621 -24.579,507.764 -203.144,628.124c33.925,58.451 60.462,123.216 77.477,192.653c21.001,85.641 25.462,170.048 15.605,249.006c53.286,73.264 94.228,159.293 117.45,254.032c11.867,48.419 18.462,96.45 20.154,143.282c136.758,112.231 224.374,284.678 224.374,477.895c0,2.098 0,4.197 -0.035,6.26c209.986,93.646 357.2,310.509 357.2,562.83c0,337.875 -263.977,612.184 -589.121,612.184c-67.762,0 -132.861,-11.919 -193.517,-33.854c-64.676,25.955 -134.836,40.378 -208.134,40.872l-3.809,0c-106.906,0 -207.217,-29.64 -293.687,-81.462c-79.841,42.018 -170.102,65.699 -265.617,65.699c-135.012,-0 -259.463,-47.291 -358.857,-126.778c-99.395,79.487 -223.863,126.778 -358.858,126.778c-121.382,-0 -234.231,-38.228 -328.018,-103.715c-84.707,49.018 -182.25,76.966 -286.053,76.966c-53.902,-0 -106.13,-7.529 -155.748,-21.653c-73.739,34.56 -155.589,53.815 -241.724,53.815c-325.144,-0 -589.121,-274.31 -589.121,-612.184c-0,-248.778 143.106,-463.084 348.348,-558.793c-16.38,-56.424 -25.108,-115.687 -25.108,-176.819c-0,-138.804 44.998,-267.98 122.246,-375.767c1.446,-18.162 3.632,-36.129 6.524,-53.868c-59.704,-76.014 -105.672,-164.899 -132.508,-262.954c-194.188,-65.487 -361.397,-247.261 -419.126,-482.761c-24.774,-101.052 -26.537,-200.359 -8.94,-291.025c-19.642,-42.265 -35.564,-87.228 -47.114,-134.325c-80.968,-330.31 83.878,-642.036 367.886,-695.709c40.748,-7.706 81.762,-9.663 122.316,-6.418c44.911,-196.251 181.88,-348.666 372.594,-384.689c132.861,-25.109 268.42,10.685 383.384,89.714Z" style="fill:#4c4c4c;"/><path d="M3739.47,773.137c64.042,-141.236 182.444,-245.004 335.406,-273.904c209.687,-39.62 426.073,72.435 557.577,266.745c27.401,-11.284 56.3,-19.924 86.558,-25.637c236.911,-44.769 482.408,104.102 604.302,346.444c260.292,-7 514.729,206.741 588.821,508.998c63.654,259.622 -24.562,507.765 -203.144,628.124c33.925,58.47 60.462,123.216 77.477,192.653c21,85.642 25.461,170.049 15.622,249.007c53.286,73.263 94.211,159.31 117.433,254.032c11.884,48.419 18.461,96.45 20.172,143.282c136.74,112.249 224.374,284.677 224.374,477.912c-0,2.099 -0.018,4.179 -0.035,6.242c209.968,93.647 357.199,310.527 357.199,562.849c0,337.857 -263.976,612.166 -589.138,612.166c-67.762,0 -132.861,-11.902 -193.517,-33.854c-64.676,25.955 -134.818,40.396 -208.134,40.872l-3.809,0.017c-106.906,0 -207.2,-29.658 -293.67,-81.48c-79.858,42.019 -170.101,65.699 -265.634,65.699c-134.995,0 -259.463,-47.29 -358.858,-126.778c-99.394,79.488 -223.845,126.778 -358.857,126.778c-121.365,0 -234.231,-38.227 -328.018,-103.714c-84.689,49.018 -182.25,76.966 -286.035,76.966c-53.92,-0 -106.148,-7.529 -155.766,-21.653c-73.739,34.56 -155.572,53.814 -241.707,53.814c-325.144,0 -589.138,-274.309 -589.138,-612.184c-0,-248.759 143.123,-463.083 348.348,-558.792c-16.363,-56.425 -25.091,-115.687 -25.091,-176.802c0,-138.803 44.998,-267.997 122.229,-375.784c1.463,-18.162 3.65,-36.13 6.524,-53.868c-59.704,-76.014 -105.672,-164.899 -132.491,-262.954c-194.205,-65.487 -361.414,-247.261 -419.143,-482.761c-24.774,-101.052 -26.537,-200.341 -8.94,-291.008c-19.625,-42.282 -35.547,-87.228 -47.096,-134.342c-80.987,-330.293 83.86,-642.036 367.867,-695.709c40.767,-7.688 81.762,-9.663 122.335,-6.419c44.892,-196.25 181.88,-348.648 372.575,-384.689c132.862,-25.108 268.421,10.686 383.402,89.732Z" style="fill:#757575;"/></svg>