<?xml version="1.0" encoding="UTF-8" standalone="no"?><!DOCTYPE svg PUBLIC "-//W3C//DTD SVG 1.1//EN" "http://www.w3.org/Graphics/SVG/1.1/DTD/svg11.dtd"><svg width="100%" height="100%" viewBox="0 0 1738 1738" version="1.1" xmlns="http://www.w3.org/2000/svg" xmlns:xlink="http://www.w3.org/1999/xlink" xml:space="preserve" xmlns:serif="http://www.serif.com/" style="fill-rule:evenodd;clip-rule:evenodd;stroke-linejoin:round;stroke-miterlimit:2;"><path d="M678.244,497.17c38.837,-20.57 82.831,-32.169 129.431,-32.169c111.764,-0 208.544,66.75 254.944,163.717c112.908,27.085 198.039,145.615 198.039,287.553c-0,161.918 -110.786,293.373 -247.24,293.373c-37.693,0 -73.424,-10.026 -105.419,-27.964c-32.74,19.003 -69.534,29.671 -108.411,29.671c-39.435,0 -76.725,-10.977 -109.81,-30.494c-37.317,26.828 -81.077,42.278 -127.854,42.278c-35.451,0 -69.17,-8.874 -99.677,-24.853c-33.169,19.64 -70.579,30.694 -110.156,30.694c-136.454,-0 -247.239,-131.455 -247.239,-293.373c-0,-134.535 76.486,-248.047 180.625,-282.582c41.265,-109.496 144.389,-187.172 264.954,-187.172c45.957,0 89.375,11.285 127.813,31.321Z" style="fill:#b7b7b4;"/><path d="M1087.29,604.471c38.841,-20.57 82.831,-32.175 129.431,-32.175c111.765,0 208.544,66.756 254.944,163.723c112.913,27.085 198.043,145.615 198.043,287.553c0,161.918 -110.785,293.373 -247.243,293.373c-37.689,-0 -73.42,-10.026 -105.416,-27.969c-32.744,19.008 -69.533,29.676 -108.41,29.676c-39.439,-0 -76.73,-10.977 -109.815,-30.494c-37.313,26.828 -81.077,42.278 -127.853,42.278c-35.452,-0 -69.171,-8.874 -99.678,-24.859c-33.165,19.646 -70.579,30.7 -110.151,30.7c-136.459,-0 -247.244,-131.456 -247.244,-293.373c0,-134.54 76.486,-248.047 180.63,-282.582c41.26,-109.496 144.389,-187.172 264.953,-187.172c45.953,-0 89.376,11.285 127.809,31.321Z" style="fill:#cfcfcf;"/></svg>