<?xml version="1.0" encoding="UTF-8" standalone="no"?><!DOCTYPE svg PUBLIC "-//W3C//DTD SVG 1.1//EN" "http://www.w3.org/Graphics/SVG/1.1/DTD/svg11.dtd"><svg width="100%" height="100%" viewBox="0 0 30175 30175" version="1.1" xmlns="http://www.w3.org/2000/svg" xmlns:xlink="http://www.w3.org/1999/xlink" xml:space="preserve" xmlns:serif="http://www.serif.com/" style="fill-rule:evenodd;clip-rule:evenodd;stroke-linejoin:round;stroke-miterlimit:2;"><path d="M11376,12154.7c674.254,-357.137 1438.04,-558.508 2247.07,-558.508c1940.35,-0 3620.55,1158.87 4426.12,2842.33c1960.21,470.225 3438.18,2528.02 3438.18,4992.25c0,2811.08 -1923.37,5093.29 -4292.38,5093.29c-654.392,-0 -1274.72,-174.063 -1830.19,-485.488c-568.4,329.896 -1207.19,515.121 -1882.13,515.121c-684.637,-0 -1332.03,-190.571 -1906.42,-529.408c-647.862,465.762 -1407.59,733.991 -2219.69,733.991c-615.467,0 -1200.87,-154.062 -1730.51,-431.491c-575.85,340.97 -1225.33,532.879 -1912.43,532.879c-2368.99,-0 -4292.33,-2282.2 -4292.33,-5093.29c-0,-2335.66 1327.88,-4306.38 3135.85,-4905.92c716.404,-1900.97 2506.75,-3249.51 4599.92,-3249.51c797.862,-0 1551.65,195.921 2218.97,543.767l-0.034,-0.013Z" style="fill:#b7b7b4;"/><path d="M19220.9,12111.8c892.219,688.254 2011.97,1086.35 3218.89,1058.55c2827.17,-65.135 5068.92,-2442.76 5002.95,-5306.19c-65.97,-2863.43 -2414.83,-5135.29 -5242,-5070.15c-38.167,0.879 -76.227,2.18 -114.184,3.924c1197.7,923.844 1985.31,2370.58 2023.12,4011.61c65.079,2824.77 -2115.67,5176.77 -4888.76,5302.26Z" style="fill:#e6b95e;"/><path d="M18477.5,14017.6c674.325,-357.133 1438.04,-558.592 2247.07,-558.592c1940.37,0 3620.55,1158.96 4426.12,2842.41c1960.3,470.208 3438.25,2528.02 3438.25,4992.25c-0,2811.06 -1923.35,5093.29 -4292.42,5093.29c-654.325,-0 -1274.65,-174.063 -1830.14,-485.592c-568.47,330 -1207.17,515.229 -1882.12,515.229c-684.704,0 -1332.12,-190.575 -1906.51,-529.412c-647.795,465.766 -1407.59,733.995 -2219.67,733.995c-615.488,0 -1200.89,-154.062 -1730.52,-431.583c-575.784,341.063 -1225.33,532.971 -1912.35,532.971c-2369.08,-0 -4292.42,-2282.2 -4292.42,-5093.29c0,-2335.76 1327.88,-4306.38 3135.94,-4905.92c716.321,-1900.98 2506.75,-3249.52 4599.88,-3249.52c797.796,-0 1551.67,195.921 2218.9,543.767l-0.017,-0.013Z" style="fill:#cfcfcf;"/></svg>