<?xml version="1.0" encoding="UTF-8" standalone="no"?><!DOCTYPE svg PUBLIC "-//W3C//DTD SVG 1.1//EN" "http://www.w3.org/Graphics/SVG/1.1/DTD/svg11.dtd"><svg width="100%" height="100%" viewBox="0 0 7242 7242" version="1.1" xmlns="http://www.w3.org/2000/svg" xmlns:xlink="http://www.w3.org/1999/xlink" xml:space="preserve" xmlns:serif="http://www.serif.com/" style="fill-rule:evenodd;clip-rule:evenodd;stroke-linecap:round;stroke-linejoin:round;stroke-miterlimit:1.5;"><path d="M3705.01,3667.68l-11.104,-1937.08l-681.783,-681.784l681.783,681.784l618.633,-618.629" style="fill:none;stroke:#528fcb;stroke-width:520.83px;"/><path d="M3705.01,3667.68l-11.104,-1937.08l-681.783,-681.784l681.783,681.784l618.633,-618.629" style="fill:none;stroke:#528fcb;stroke-width:520.83px;"/><path d="M3683.1,3638.37l-1377.57,-1361.87l-964.187,-0l964.187,-0l0,-874.875" style="fill:none;stroke:#528fcb;stroke-width:520.83px;"/><path d="M3694.78,3633.79l-1803.98,11.1l-634.938,681.783l634.938,-681.783l-576.125,-618.629" style="fill:none;stroke:#528fcb;stroke-width:520.83px;"/><path d="M3669.47,3649.42l11.1,-1937.08l681.783,-681.784l-681.783,681.784l-618.629,-618.634" style="fill:none;stroke:#528fcb;stroke-width:520.83px;"/><path d="M3669.47,3649.42l11.1,-1937.08l681.783,-681.784l-681.783,681.784l-618.629,-618.634" style="fill:none;stroke:#528fcb;stroke-width:520.83px;"/><path d="M3691.37,3620.11l1377.57,-1361.87l964.187,-0l-964.187,-0l-0,-874.875" style="fill:none;stroke:#528fcb;stroke-width:520.83px;"/><path d="M3679.7,3615.53l1803.98,11.104l634.942,681.784l-634.942,-681.783l576.125,-618.634" style="fill:none;stroke:#528fcb;stroke-width:520.83px;"/><path d="M3677.87,3582.23l-11.1,1937.08l-681.784,681.784l681.784,-681.784l618.629,618.634" style="fill:none;stroke:#528fcb;stroke-width:520.83px;"/><path d="M3677.87,3582.23l-11.1,1937.08l-681.784,681.784l681.784,-681.784l618.629,618.634" style="fill:none;stroke:#528fcb;stroke-width:520.83px;"/><path d="M3655.97,3611.54l-1377.57,1361.87l-964.188,0l964.188,0l-0,874.875" style="fill:none;stroke:#528fcb;stroke-width:520.83px;"/><path d="M3667.65,3616.12l-1803.98,-11.104l-634.941,-681.784l634.942,681.784l-576.13,618.633" style="fill:none;stroke:#528fcb;stroke-width:520.83px;"/><path d="M3642.33,3600.49l11.104,1937.07l681.784,681.788l-681.783,-681.788l-618.634,618.634" style="fill:none;stroke:#528fcb;stroke-width:520.83px;"/><path d="M3642.33,3600.49l11.104,1937.07l681.784,681.788l-681.783,-681.788l-618.634,618.634" style="fill:none;stroke:#528fcb;stroke-width:520.83px;"/><path d="M3664.24,3629.79l1377.57,1361.87l964.188,-0.001l-964.188,0.001l0,874.874" style="fill:none;stroke:#528fcb;stroke-width:520.83px;"/><path d="M3652.56,3634.37l1803.99,-11.1l634.937,-681.788l-634.937,681.788l576.125,618.629" style="fill:none;stroke:#528fcb;stroke-width:520.83px;"/></svg>